<?xml version="1.0" standalone="no"?>
<!DOCTYPE svg PUBLIC "-//W3C//DTD SVG 20010904//EN"
 "http://www.w3.org/TR/2001/REC-SVG-20010904/DTD/svg10.dtd">
<svg version="1.0" xmlns="http://www.w3.org/2000/svg"
 width="300.000000pt" height="300.000000pt" viewBox="0 0 300.000000 300.000000"
 preserveAspectRatio="xMidYMid meet">
<metadata>
Created by potrace 1.11, written by Peter Selinger 2001-2013
</metadata>
<g transform="translate(0.000000,300.000000) scale(0.100000,-0.100000)"
fill="#000000" stroke="none">
<path d="M0 1500 l0 -1500 1500 0 1500 0 0 1500 0 1500 -1500 0 -1500 0 0
-1500z m685 1055 c0 -5 -25 -13 -55 -17 -54 -6 -80 -25 -80 -57 0 -40 72 -315
239 -916 89 -318 96 -338 105 -315 3 8 111 299 240 647 129 347 239 641 246
652 28 53 37 34 170 -344 65 -185 120 -338 122 -341 3 -2 43 14 90 36 86 40
206 73 310 85 66 8 51 -20 128 244 53 183 63 268 35 291 -8 7 -38 15 -66 19
-29 3 -54 12 -57 19 -3 9 48 12 233 12 185 0 236 -3 233 -12 -3 -7 -26 -16
-53 -20 -54 -8 -95 -40 -126 -101 -11 -21 -51 -130 -88 -241 l-69 -203 107 -6
c58 -4 158 -15 221 -26 63 -11 138 -23 167 -26 l52 -7 -6 -121 c-9 -200 -17
-280 -29 -284 -6 -2 -15 27 -22 72 -13 84 -36 136 -78 179 -63 63 -219 119
-366 132 l-73 6 -158 -480 c-144 -437 -181 -532 -207 -532 -20 0 -44 57 -148
354 -60 169 -113 307 -118 306 -5 0 -15 -18 -22 -38 -49 -139 -60 -397 -23
-537 61 -227 212 -414 417 -515 228 -113 577 -104 708 18 34 32 82 128 91 183
10 58 35 52 35 -8 0 -61 -44 -279 -60 -298 -38 -46 -295 -82 -505 -71 -286 14
-485 87 -651 238 -102 94 -174 213 -221 365 -24 79 -27 104 -27 248 -1 138 2
171 22 240 30 103 79 205 138 285 l46 63 -84 238 c-45 132 -85 239 -88 239 -3
0 -109 -273 -235 -607 -125 -335 -237 -627 -248 -650 -23 -48 -44 -60 -65 -39
-8 7 -114 346 -237 752 -122 407 -229 755 -237 774 -28 65 -75 94 -172 102
-16 2 -31 9 -34 16 -3 10 54 12 275 10 177 -2 278 -7 278 -13z"/>
<path d="M1952 1880 c-78 -21 -169 -65 -215 -105 l-28 -25 81 -229 c97 -278
99 -285 105 -279 2 2 47 143 100 313 52 171 98 318 101 328 4 14 -1 17 -33 16
-21 0 -71 -9 -111 -19z"/>
</g>
</svg>
